<?xml version="1.0" encoding="UTF-8" standalone="no"?>
<svg
   viewBox="0 0 511.99999 459.29017"
   version="1.1"
   id="svg4"
   width="512"
   height="459.29016"
   sodipodi:docname="logo.svg"
   inkscape:export-filename="logo.png"
   inkscape:export-xdpi="37.925926"
   inkscape:export-ydpi="37.925926"
   inkscape:version="1.3.2 (091e20ef0f, 2023-11-25, custom)"
   xmlns:inkscape="http://www.inkscape.org/namespaces/inkscape"
   xmlns:sodipodi="http://sodipodi.sourceforge.net/DTD/sodipodi-0.dtd"
   xmlns="http://www.w3.org/2000/svg"
   xmlns:svg="http://www.w3.org/2000/svg">
  <sodipodi:namedview
     id="namedview1"
     pagecolor="#505050"
     bordercolor="#eeeeee"
     borderopacity="1"
     inkscape:showpageshadow="0"
     inkscape:pageopacity="0"
     inkscape:pagecheckerboard="0"
     inkscape:deskcolor="#d1d1d1"
     inkscape:zoom="0.4310296"
     inkscape:cx="551.00624"
     inkscape:cy="668.16757"
     inkscape:window-width="1920"
     inkscape:window-height="1014"
     inkscape:window-x="0"
     inkscape:window-y="66"
     inkscape:window-maximized="1"
     inkscape:current-layer="svg4" />
  <defs
     id="defs4" />
  <path
     fill="#f5f8fa"
     d="M 255.99999,459.29015 C 30.750117,459.29015 0,235.46999 0,175.78461 h 512 c 0,29.84269 -29.48518,283.50554 -256.00001,283.50554 z"
     id="path2"
     style="stroke-width:14.9901" />
  <path
     fill="#ccd6dd"
     d="M 502.7388,140.62993 C 539.51246,-10.418842 355.44845,25.646048 318.96095,54.10105 298.78213,51.892693 277.75999,50.609455 255.99999,50.609455 114.61272,50.609455 0,98.790476 0,176.60529 0,254.43502 114.61272,317.53738 255.99999,317.53738 397.38728,317.53738 512,254.43502 512,176.62021 c 0,-12.87712 -3.40329,-24.82912 -9.2612,-35.99028 z M 465.04659,100.46167 C 444.61178,86.465446 418.33411,75.184909 387.93036,66.888644 c 28.23529,-8.594695 68.53269,-4.610699 77.11623,33.573026 z"
     id="path3"
     style="stroke-width:14.9901" />
  <ellipse
     fill="#8A4B38"
     cx="256"
     cy="190.70596"
     rx="225.88232"
     ry="104.44941"
     id="ellipse3"
     style="opacity:0.845858;fill:#a04100;fill-opacity:1;stroke-width:14.9901" />
  <path
     fill="#d99e82"
     d="m 300.44618,253.67777 c -3.85504,0 -7.7101,-1.46229 -10.64658,-4.37195 -35.19247,-34.87118 -35.77977,-72.89076 -1.88237,-123.28015 11.1285,-16.54777 13.55295,-33.513334 7.19814,-50.389374 -6.94213,-18.442781 -21.65458,-29.783007 -26.06683,-30.991634 -8.32753,0 -14.42635,-6.610158 -14.42635,-14.861659 0,-8.236585 7.39389,-14.846739 15.70635,-14.846739 15.01364,0 36.06588,17.204308 47.93223,39.168527 15.57082,28.842963 13.70354,60.267319 -5.28563,88.468649 -29.53036,43.8986 -23.05506,64.63927 -1.88236,85.61868 5.888,5.83424 5.888,15.26453 0,21.09878 -2.93647,2.92458 -6.79154,4.38687 -10.6466,4.38687 z m -90.35294,-29.84268 c -3.85504,0 -7.71011,-1.4623 -10.64659,-4.37196 -35.19246,-34.87118 -35.77973,-72.89076 -1.88233,-123.280144 10.94777,-16.279185 13.4475,-31.081159 7.43905,-43.973205 -6.68613,-14.339411 -21.54919,-21.919455 -25.35905,-22.367093 -8.31249,0 -14.89318,-6.669843 -14.89318,-14.921345 C 164.75114,6.6847621 171.64809,0 179.97559,0 c 15.01364,0 38.92705,14.533388 50.59765,36.154416 7.2433,13.414287 15.8419,41.197835 -7.95105,76.561424 -29.53037,43.89859 -23.05505,64.63926 -1.88236,85.61867 5.88799,5.83424 5.88799,15.26453 0,21.09878 -2.93646,2.9395 -6.79151,4.4018 -10.64659,4.4018 z"
     id="path4"
     style="fill:#793100;fill-opacity:1;stroke-width:14.9901" />
</svg>
