<?xml version="1.0" encoding="UTF-8" standalone="no"?>
<svg
   id="visual"
   viewBox="0 0 900 81.516928"
   width="900"
   height="81.51693"
   version="1.1"
   sodipodi:docname="waves.svg"
   inkscape:version="1.3.2 (091e20ef0f, 2023-11-25, custom)"
   xmlns:inkscape="http://www.inkscape.org/namespaces/inkscape"
   xmlns:sodipodi="http://sodipodi.sourceforge.net/DTD/sodipodi-0.dtd"
   xmlns="http://www.w3.org/2000/svg"
   xmlns:svg="http://www.w3.org/2000/svg">
  <sodipodi:namedview
     id="namedview1"
     pagecolor="#505050"
     bordercolor="#eeeeee"
     borderopacity="1"
     inkscape:showpageshadow="0"
     inkscape:pageopacity="0"
     inkscape:pagecheckerboard="0"
     inkscape:deskcolor="#d1d1d1"
     inkscape:zoom="0.87777775"
     inkscape:cx="381.07596"
     inkscape:cy="26.202532"
     inkscape:window-width="1920"
     inkscape:window-height="1014"
     inkscape:window-x="0"
     inkscape:window-y="66"
     inkscape:window-maximized="1"
     inkscape:current-layer="visual" />
  <defs
     id="defs5" />
  <path
     d="m 0,36.033868 18.8,3.415408 c 18.9,3.415416 56.5,10.24624 94,12.807793 37.5,2.56156 74.9,0.853855 112.4,-2.988485 37.5,-3.842332 75.1,-9.819308 112.6,-12.807792 37.5,-2.988484 74.9,-2.988484 112.4,2.134636 37.5,5.123112 75.1,15.369352 112.6,15.369352 37.5,0 74.9,-10.24624 112.4,-11.100088 37.5,-0.853856 75.1,7.684672 112.6,11.100088 37.5,3.415409 74.9,1.707704 93.5,0.853849 L 900,53.96478 V 24.933779 l -18.7,2.988484 c -18.6,2.988485 -56,8.96546 -93.5,2.56156 C 750.3,24.079923 712.7,5.295162 675.2,1.0258968 637.7,-3.2433682 600.3,7.002868 562.8,9.991353 525.3,12.979838 487.7,8.710574 450.2,5.722088 c -37.5,-2.9884852 -74.9,-4.6961912 -112.4,0 -37.5,4.696191 -75.1,15.796283 -112.6,20.492471 -37.5,4.696189 -74.9,2.988484 -112.4,0 -37.5,-2.988484 -75.1,-7.257748 -94,-9.392384 L 0,14.687544 Z"
     fill="#0c3e83"
     id="path3"
     style="stroke-width:0.653396" />
  <path
     d="m 0,81.343814 18.8,-0.336091 c 18.9,-0.3361 56.5,-1.008291 94,-5.377536 37.5,-4.369255 74.9,-12.435555 112.4,-13.443847 37.5,-1.008284 75.1,5.041448 112.6,10.755074 37.5,5.713627 74.51934,1.4951 112.01934,3.847762 37.5,2.352673 77.03952,-5.342976 112.98066,1.940155 36.93117,7.483753 74.9,-4.779636 112.4,-9.148871 37.5,-4.369253 75.1,-6.385828 112.6,-7.730212 37.5,-1.344384 74.9,-2.016576 93.5,-2.352675 L 900,59.161481 V 42.356678 l -18.7,0.672191 c -18.6,0.672192 -56,2.016576 -93.5,-0.672191 -37.5,-2.688767 -75.1,-9.410686 -112.6,-8.738494 -37.5,0.672192 -74.9,8.738494 -112.4,8.738494 -37.5,0 -75.1,-8.066302 -112.6,-12.099453 -37.5,-4.033153 -74.9,-4.033153 -112.4,-1.680484 -37.5,2.352668 -75.1,7.058018 -112.6,10.082879 -37.5,3.024865 -74.9,4.369249 -112.4,2.352674 -37.5,-2.016575 -75.1,-7.39411 -94,-10.082885 L 0,28.240642 Z"
     fill="#04254b"
     id="path4"
     style="stroke-width:0.579738"
     sodipodi:nodetypes="ccsssssssccccsssssssccc" />
  <path
     d="m 0,81.516927 h 18.8 c 18.9,0 56.5,0 94,0 37.5,0 74.9,0 112.4,0 37.5,0 75.1,0 112.6,0 37.5,0 74.9,0 112.4,0 37.5,0 75.1,0 112.6,0 37.5,0 74.9,0 112.4,0 37.5,0 75.1,0 112.6,0 37.5,0 74.9,0 93.5,0 H 900 v -23.28591 l -18.7,0.190867 c -18.6,0.190867 -56,0.572605 -93.5,1.336076 -37.5,0.763472 -75.1,1.908681 -112.6,4.389967 -37.5,2.48129 -74.9,6.29865 -112.4,8.3982 -37.5,2.09955 -75.1,2.48128 -112.6,1.1452 -37.5,-1.33607 -74.9,-4.38996 -112.4,-7.63472 -37.5,-3.244757 -75.1,-6.680381 -112.6,-6.107777 -37.5,0.572602 -74.9,5.153439 -112.4,7.634727 -37.5,2.48128 -75.1,2.86302 -94,3.05389 L 0,70.828317 Z"
     fill="#000919"
     id="path5"
     style="stroke-width:0.436885" />
</svg>
